<?xml version="1.0" standalone="no"?>
<!DOCTYPE svg PUBLIC "-//W3C//DTD SVG 20010904//EN"
 "http://www.w3.org/TR/2001/REC-SVG-20010904/DTD/svg10.dtd">
<svg version="1.0" xmlns="http://www.w3.org/2000/svg"
 width="1280.000000pt" height="707.000000pt" viewBox="0 0 1280.000000 707.000000"
 preserveAspectRatio="xMidYMid meet">

<g transform="translate(0.000000,707.000000) scale(0.100000,-0.100000)"
fill="#000000" stroke="none">
<path d="M4074 7030 c-48 -19 -114 -122 -114 -178 0 -7 -16 -45 -37 -84 -27
-53 -39 -91 -46 -153 -11 -89 -12 -86 44 -156 12 -16 22 -43 23 -68 2 -37 10
-50 74 -114 40 -40 72 -77 72 -83 0 -5 9 -18 21 -28 19 -16 21 -24 14 -94 -25
-295 -120 -792 -202 -1062 -61 -203 -191 -484 -300 -649 -59 -90 -249 -291
-275 -291 -12 0 -279 350 -462 607 -33 46 -67 85 -77 88 -23 8 -24 18 -3 50
30 46 53 269 35 342 -26 100 -90 161 -241 228 -111 49 -198 58 -263 26 -65
-31 -78 -51 -87 -128 -4 -37 -16 -86 -25 -108 -22 -50 -16 -126 15 -208 23
-62 106 -162 157 -187 15 -8 51 -35 80 -59 43 -36 54 -52 62 -92 10 -46 41
-278 41 -306 0 -26 -27 -12 -65 35 -22 26 -83 97 -136 157 -168 192 -657 818
-845 1081 -147 205 -197 292 -190 332 4 26 -1 38 -25 63 -22 23 -29 39 -29 69
l0 40 -59 0 c-33 0 -62 -4 -65 -9 -9 -14 -81 -24 -115 -16 -16 3 -55 28 -86
56 -63 55 -86 60 -118 25 -94 -101 -103 -119 -72 -150 18 -17 107 -52 172 -66
77 -18 86 -26 81 -75 -5 -37 -2 -45 16 -53 11 -6 33 -11 48 -10 18 0 35 -8 48
-23 l20 -24 19 25 19 24 35 -37 c20 -20 150 -182 290 -359 140 -178 267 -336
282 -352 20 -21 23 -31 14 -37 -9 -5 5 -37 53 -116 36 -59 98 -173 138 -253
40 -80 90 -171 111 -202 43 -62 47 -73 24 -64 -10 3 -15 -1 -15 -13 0 -10 22
-196 50 -412 64 -510 85 -700 104 -939 9 -107 18 -214 21 -237 l4 -42 -158
-52 c-113 -38 -158 -57 -157 -67 1 -10 -27 -27 -73 -48 -103 -44 -218 -154
-162 -154 10 0 38 9 62 20 49 22 125 25 228 10 35 -5 140 -12 233 -16 133 -5
168 -10 168 -21 0 -16 3 -15 -123 -43 -55 -12 -95 -26 -91 -31 11 -18 -17 -38
-84 -61 -76 -25 -57 -37 29 -19 27 6 70 11 94 11 l45 0 0 -362 c-1 -200 -5
-396 -9 -436 -10 -83 -27 -108 -92 -137 -21 -10 -39 -24 -39 -31 0 -16 -100
-64 -216 -103 -57 -20 -98 -41 -118 -60 -39 -40 -29 -48 26 -20 60 31 138 30
198 -2 44 -23 51 -24 353 -27 365 -4 390 -13 160 -57 -82 -15 -152 -32 -158
-38 -7 -6 2 -7 25 -4 19 4 240 29 490 56 441 49 916 88 927 77 10 -10 -17 -14
-212 -36 -752 -83 -1166 -148 -1494 -236 -134 -36 -263 -84 -286 -105 -19 -19
-19 -19 0 -38 24 -22 236 -102 392 -147 78 -22 153 -54 241 -100 70 -37 158
-83 195 -101 85 -41 265 -94 332 -96 28 -2 56 -6 63 -11 7 -4 104 -23 215 -42
205 -34 553 -65 1287 -113 602 -40 860 -48 1785 -57 554 -5 703 -3 1105 15
1115 50 1472 74 1780 122 409 63 506 83 480 99 -7 4 25 17 72 29 187 49 268
75 377 118 63 25 160 58 215 75 379 110 546 175 546 213 0 42 -133 97 -375
155 -349 84 -635 130 -1115 180 -113 12 -252 28 -310 35 l-105 14 85 -5 c198
-12 766 -67 1026 -99 154 -19 318 -35 365 -34 80 0 83 1 54 14 -36 17 -543
130 -805 179 -237 45 -555 91 -796 116 -338 35 -629 46 -2147 80 -934 21 -845
14 -968 81 -47 25 -167 37 -519 49 -157 5 -300 10 -317 10 -26 0 -33 4 -33 19
0 11 4 22 9 26 36 21 526 51 1146 69 l420 12 -310 9 c-386 12 -606 12 -1192 1
l-462 -9 -6 26 c-7 25 51 330 73 388 15 37 108 147 145 170 60 37 135 58 313
89 98 17 206 38 239 47 108 28 186 87 200 151 3 16 21 44 40 64 l35 36 156 7
c420 20 2292 -27 2604 -65 47 -6 234 -22 415 -36 376 -28 614 -52 965 -93 135
-17 265 -32 290 -34 25 -3 125 -19 223 -37 98 -18 181 -29 184 -26 3 3 0 12
-6 20 -11 12 -6 16 26 22 54 10 45 13 -342 98 -683 151 -1072 208 -1615 235
-113 6 -275 15 -360 21 -85 6 -344 15 -575 20 -843 21 -1492 41 -1571 50 -46
5 -111 21 -155 38 -40 16 -87 32 -104 36 -22 4 -789 36 -882 36 -19 0 -16 27
4 34 25 10 292 36 473 46 189 10 680 19 1130 20 190 0 329 4 320 9 -8 5 -145
14 -304 20 -416 17 -475 31 -512 118 -18 43 -18 199 1 378 20 194 30 232 66
250 35 19 179 34 329 36 63 0 126 5 140 9 15 4 -4 6 -45 3 -98 -7 -297 21
-353 49 -65 32 -80 59 -93 158 -5 47 -12 99 -15 115 -2 19 -15 37 -34 50 -16
11 -30 25 -30 31 0 6 -41 38 -92 70 -200 127 -374 284 -562 509 -117 141 -246
309 -246 321 0 4 -8 16 -17 27 -10 10 -40 56 -68 102 -27 45 -67 108 -88 139
-44 67 -189 334 -342 630 l-108 209 33 91 c52 143 69 215 69 300 1 69 -3 85
-30 137 -33 61 -85 120 -131 147 -15 9 -32 28 -38 43 -13 32 -71 75 -127 95
-42 15 -127 17 -159 4z m-594 -3716 c87 -47 214 -183 265 -284 l23 -46 -32
-26 c-30 -24 -49 -27 -375 -63 -189 -20 -345 -34 -348 -32 -8 9 57 211 94 290
38 82 105 155 166 183 49 22 143 13 207 -22z m197 -867 c42 -22 130 -128 159
-192 33 -71 38 -119 20 -205 -22 -105 -66 -189 -135 -257 -110 -109 -190 -143
-383 -163 -103 -10 -108 -10 -161 14 -95 42 -185 143 -229 259 -46 122 -43
328 7 426 41 81 94 99 365 121 74 7 142 13 150 15 46 8 178 -3 207 -18z m3588
-1247 c-3 -5 -25 -10 -48 -10 -41 0 -47 -5 -148 -107 -175 -178 -176 -183 -99
-283 65 -82 70 -103 37 -138 -14 -15 -40 -63 -57 -107 -34 -90 -45 -106 -78
-124 -35 -19 -117 -22 -657 -25 -299 -1 -512 -7 -530 -13 -38 -12 274 -23 676
-23 317 0 530 -14 542 -36 4 -8 16 -14 25 -15 11 0 9 -4 -8 -11 -33 -13 -539
-29 -945 -28 -371 0 -814 16 -1655 60 -663 35 -723 42 -1626 181 -249 38 -341
56 -341 65 0 8 14 16 31 18 17 3 47 9 66 13 75 16 392 4 571 -21 417 -59 1043
-112 1451 -123 l237 -6 -14 52 -14 52 37 35 c47 44 125 73 235 86 88 11 106
21 65 34 -21 6 -58 37 -58 48 0 2 21 12 48 22 55 20 84 42 75 57 -4 6 -7 23
-7 37 -1 19 -25 47 -101 115 -55 50 -102 93 -103 98 -2 4 -18 15 -35 24 -26
13 -73 17 -237 21 -113 2 -209 8 -213 12 -12 11 111 18 483 30 483 15 496 15
1493 18 603 1 906 -1 902 -8z m-4127 -907 c-15 -2 -42 -2 -60 0 -18 2 -6 4 27
4 33 0 48 -2 33 -4z m299 -10 c-20 -2 -52 -2 -70 0 -17 2 0 4 38 4 39 0 53 -2
32 -4z m310 -10 c-20 -2 -52 -2 -70 0 -17 2 0 4 38 4 39 0 53 -2 32 -4z m291
-10 c-21 -2 -55 -2 -75 0 -21 2 -4 4 37 4 41 0 58 -2 38 -4z m265 -10 c-18 -2
-48 -2 -65 0 -18 2 -4 4 32 4 36 0 50 -2 33 -4z m245 -10 c-15 -2 -42 -2 -60
0 -18 2 -6 4 27 4 33 0 48 -2 33 -4z m1476 -2 c4 -5 -5 -8 -19 -6 -35 3 -44
15 -12 15 14 0 28 -4 31 -9z m-1271 -8 c-13 -2 -33 -2 -45 0 -13 2 -3 4 22 4
25 0 35 -2 23 -4z m190 -10 c-13 -2 -35 -2 -50 0 -16 2 -5 4 22 4 28 0 40 -2
28 -4z m1370 0 c-13 -2 -33 -2 -45 0 -13 2 -3 4 22 4 25 0 35 -2 23 -4z
m-1190 -10 c-13 -2 -35 -2 -50 0 -16 2 -5 4 22 4 28 0 40 -2 28 -4z m210 -10
c-18 -2 -48 -2 -65 0 -18 2 -4 4 32 4 36 0 50 -2 33 -4z m460 -10 c-57 -2
-149 -2 -205 0 -57 1 -11 3 102 3 113 0 159 -2 103 -3z"/>
<path d="M8467 7010 c-26 -18 -58 -48 -71 -67 -13 -18 -50 -58 -83 -87 -36
-33 -73 -80 -94 -118 -31 -58 -34 -69 -33 -148 0 -66 7 -103 28 -165 16 -44
30 -95 32 -113 3 -18 13 -47 24 -65 11 -17 20 -39 20 -48 0 -18 -133 -291
-172 -356 -13 -21 -37 -67 -52 -103 -63 -145 -423 -703 -525 -813 -21 -22 -22
-27 -7 -21 14 5 17 3 14 -7 -3 -8 -11 -14 -19 -14 -24 -1 -39 -15 -39 -37 0
-11 -16 -46 -35 -78 -49 -81 -54 -112 -22 -144 41 -41 44 -85 11 -146 -50 -91
-323 -369 -471 -478 -34 -26 -60 -48 -58 -50 10 -10 248 187 419 347 121 112
203 175 271 207 98 46 272 24 401 -52 97 -57 194 -207 233 -359 30 -121 38
-207 57 -603 19 -404 18 -419 -40 -470 -34 -29 -36 -30 -183 -36 -81 -4 -161
-10 -178 -14 -47 -12 394 -50 645 -57 234 -5 398 -17 969 -70 205 -19 392 -35
415 -35 l41 1 -31 13 c-53 23 -59 57 -34 183 54 269 164 565 275 739 35 55
106 127 164 166 33 23 109 23 140 2 65 -46 94 -200 86 -454 -2 -80 -2 -136 1
-125 3 11 9 29 14 40 5 11 25 117 44 235 102 632 105 659 89 753 -5 33 -12 42
-50 60 -39 19 -44 25 -42 52 2 17 0 35 -4 41 -8 13 4 54 29 104 17 35 72 105
368 470 185 228 174 215 181 209 6 -6 -54 -190 -66 -203 -16 -17 -10 -36 11
-36 13 0 20 7 20 20 0 10 9 24 20 30 11 6 18 16 14 21 -9 14 17 70 30 66 6 -2
13 -21 16 -43 l6 -39 13 57 c10 39 23 66 44 85 l30 28 -7 -25 c-99 -350 -163
-658 -211 -1012 -37 -277 -42 -377 -21 -419 18 -36 35 -200 36 -345 0 -85 18
-197 30 -189 4 2 10 84 13 182 5 166 8 191 51 376 25 108 50 205 55 215 6 9
17 78 26 152 29 234 78 482 151 755 41 156 235 757 247 766 5 3 33 12 63 18
53 12 71 32 39 45 -33 12 -15 33 34 39 94 11 195 85 246 178 53 98 45 249 -20
367 -24 43 -24 43 -5 62 25 25 25 37 0 78 -41 68 -120 89 -211 57 -24 -9 -55
-26 -69 -39 -14 -14 -49 -31 -79 -40 -108 -32 -193 -103 -234 -195 -18 -41
-19 -58 -13 -188 4 -91 2 -144 -4 -148 -5 -3 -10 -30 -10 -59 0 -49 -5 -60
-72 -157 -150 -220 -540 -725 -867 -1124 -195 -238 -227 -273 -238 -262 -8 9
22 198 43 268 16 54 46 88 124 141 61 42 109 87 127 121 13 26 13 31 -1 46
-17 19 -22 86 -7 95 5 3 20 -4 35 -15 l26 -20 0 49 c0 28 -9 78 -19 113 -10
35 -22 84 -25 108 -9 57 -33 109 -58 122 -33 18 -117 27 -166 18 -26 -5 -91
-27 -144 -50 -109 -46 -173 -103 -210 -186 -23 -51 -27 -162 -9 -223 6 -19 11
-51 11 -70 0 -19 7 -55 16 -80 l16 -45 -272 -362 c-150 -200 -278 -363 -285
-363 -23 0 -132 89 -200 163 -124 133 -256 355 -339 569 -69 179 -165 479
-190 596 -51 234 -106 612 -106 727 l0 72 84 91 c46 50 95 110 109 134 32 55
57 140 57 194 0 65 -34 159 -79 218 -34 46 -38 56 -26 66 24 20 18 43 -22 90
-45 52 -81 68 -170 76 -65 6 -70 4 -116 -26z m3188 -1171 c5 -5 -5 -4 -23 2
-17 6 -32 13 -32 16 0 7 43 -8 55 -18z m40 -17 c-3 -3 -11 0 -18 7 -9 10 -8
11 6 5 10 -3 15 -9 12 -12z"/>
<path d="M6588 3813 c7 -3 16 -2 19 1 4 3 -2 6 -13 5 -11 0 -14 -3 -6 -6z"/>
</g>
</svg>
